#!OML:ASF H:\Swim 2\Project 1\Capture day 1\Session 1\male.ASF
:FULLY-SPECIFIED
:DEGREES
1502
root -0.0242918 13.9033 5.5899 80.6275 5.69125 1.3207
lowerback -2.40196 -0.363819 -1.756
upperback -2.8459 -0.437622 2.56098
thorax -1.54309 -0.161223 3.61606
lowerneck -16.7216 0.333888 -0.301111
upperneck 42.8748 0.87244 -0.44688
head 19.2954 0.245335 0.0216006
rclavicle -3.77691e-015 -1.63997e-015
rhumerus 93.6767 -13.777 -34.5882
rradius 28.49
rwrist -19.0806
rhand 30.0165 -20.696
rfingers 7.12502
rthumb 53.7218 -39.7204
lclavicle -3.77691e-015 -1.63997e-015
lhumerus -265.483 9.76327 -322.954
lradius 25.9215
lwrist 13.9885
lhand 21.7186 6.28173
lfingers 7.12502
lthumb 46.1326 29.3209
rfemur -43.9085 -2.76031 20.3952
rtibia 51.1332
rfoot 1.06515 -2.79443
rtoes 6.2598
lfemur -44.5386 1.29756 -29.5793
ltibia 67.4633
lfoot -6.46354 -1.75799
ltoes -18.4558
1503
root -0.0174435 13.9262 5.61599 80.8484 5.62911 1.25159
lowerback -2.34511 -0.281591 -1.92181
upperback -2.71042 -0.325341 2.68553
thorax -1.44312 -0.103508 3.8398
lowerneck -16.2248 0.222768 -0.458858
upperneck 42.8125 0.840881 -0.626466
head 19.1146 0.18996 -0.0425524
rclavicle 1.19271e-015 2.26615e-014
rhumerus 93.5993 -12.655 -35.1355
rradius 27.9465
rwrist -19.4421
rhand 29.3956 -21.0301
rfingers 7.12502
rthumb 53.1628 -40.4188
lclavicle 1.19271e-015 2.26615e-014
lhumerus -266.011 8.84809 -322.55
lradius 25.3484
lwrist 10.8771
lhand 21.0143 3.80447
lfingers 7.12502
lthumb 45.4788 27.1129
rfemur -43.9613 -2.99941 20.6719
rtibia 52.1355
rfoot 1.11039 -2.52896
rtoes 6.30941
lfemur -44.3215 1.82965 -29.807
ltibia 69.5579
lfoot -6.34492 -1.99995
ltoes -18.6485
1504
root -0.0102075 13.9508 5.64397 81.107 5.54279 1.14462
lowerback -2.32518 -0.178997 -2.09735
upperback -2.58015 -0.18547 2.79403
thorax -1.33138 -0.0324314 4.05297
lowerneck -15.7982 0.115106 -0.569517
upperneck 42.7501 0.794431 -0.803921
head 18.9554 0.136747 -0.115952
rclavicle 3.97569e-015 -1.28216e-014
rhumerus 93.368 -11.6344 -35.6258
rradius 27.5936
rwrist -20.1996
rhand 28.8647 -21.5177
rfingers 7.12502
rthumb 52.6834 -41.2085
lclavicle 3.97569e-015 -1.28216e-014
lhumerus -266.601 8.02414 -322.175
lradius 24.8415
lwrist 7.35919
lhand 19.9824 0.730367
lfingers 7.12502
lthumb 44.5187 24.417
rfemur -44.0469 -3.22216 20.9271
rtibia 53.2598
rfoot 1.19533 -2.19938
rtoes 6.06293
lfemur -44.1016 2.35833 -30.021
ltibia 71.6651
lfoot -6.2067 -2.12601
ltoes -18.7703
1505
root -0.00270793 13.9774 5.67514 81.4137 5.43334 0.998576
lowerback -2.34356 -0.0674249 -2.27821
upperback -2.46033 -0.0331653 2.88373
thorax -1.21144 0.0443689 4.25025
lowerneck -15.4352 0.022194 -0.646144
upperneck 42.6806 0.738367 -0.940556
head 18.8104 0.0899669 -0.176976
rclavicle 4.37326e-015 -1.13307e-014
rhumerus 93.0141 -10.7031 -36.0336
rradius 27.4128
rwrist -21.1474
rhand 28.4362 -22.1205
rfingers 7.12502
rthumb 52.2956 -42.0488
lclavicle 4.37326e-015 -1.13307e-014
lhumerus -267.195 7.29419 -321.765
lradius 24.4366
lwrist 3.99073
lhand 18.8516 -2.36116
lfingers 7.12502
lthumb 43.4638 21.7188
rfemur -44.1694 -3.41755 21.1542
rtibia 54.5061
rfoot 1.29437 -1.8112
rtoes 5.67717
lfemur -43.8888 2.92918 -30.2227
ltibia 73.7605
lfoot -5.97526 -2.14597
ltoes -18.6256
1506
root 0.00471459 14.0053 5.70875 81.7729 5.29938 0.822141
lowerback -2.40019 0.0435912 -2.46803
upperback -2.34855 0.118974 2.95194
thorax -1.07972 0.120461 4.43094
lowerneck -15.1335 -0.0480968 -0.680585
upperneck 42.5809 0.685535 -1.04519
head 18.6643 0.0543725 -0.229149
rclavicle -2.78299e-015 -2.98177e-016
rhumerus 92.5707 -9.87297 -36.2977
rradius 27.3814
rwrist -22.1735
rhand 28.0181 -22.7642
rfingers 7.12502
rthumb 51.9166 -42.9193
lclavicle -2.78299e-015 -2.98177e-016
lhumerus -267.77 6.66365 -321.369
lradius 24.1836
lwrist 1.30989
lhand 17.8018 -4.98819
lfingers 7.12502
lthumb 42.4821 19.4383
rfemur -44.3353 -3.58902 21.3458
rtibia 55.8826
rfoot 1.40127 -1.41585
rtoes 5.21716
lfemur -43.6907 3.51094 -30.4078
ltibia 75.8286
lfoot -5.61322 -2.02065
ltoes -17.7969
1507
root 0.0119894 14.0345 5.74433 82.1798 5.14069 0.632757
lowerback -2.48575 0.147549 -2.67674
upperback -2.23912 0.262465 2.99972
thorax -0.934714 0.191554 4.60177
lowerneck -14.8941 -0.094674 -0.675231
upperneck 42.4392 0.639367 -1.11897
head 18.5103 0.0306041 -0.272132
rclavicle -7.95139e-016 -1.58034e-014
rhumerus 92.0711 -9.15476 -36.3704
rradius 27.4749
rwrist -23.1977
rhand 27.5145 -23.4054
rfingers 7.12502
rthumb 51.4591 -43.8269
lclavicle -7.95139e-016 -1.58034e-014
lhumerus -268.314 6.14087 -321.099
lradius 24.1309
lwrist -0.191476
lhand 16.9813 -6.75007
lfingers 7.12502
lthumb 41.7133 17.9353
rfemur -44.5367 -3.75424 21.4975
rtibia 57.3907
rfoot 1.57469 -1.08785
rtoes 4.87575
lfemur -43.4982 4.08129 -30.5736
ltibia 77.8466
lfoot -5.12825 -1.80384
ltoes -16.4856
1508
root 0.0191849 14.0648 5.78139 82.6366 4.967 0.44899
lowerback -2.60154 0.243656 -2.90691
upperback -2.12728 0.396654 3.03093
thorax -0.770636 0.257098 4.76837
lowerneck -14.7158 -0.126038 -0.638226
upperneck 42.2454 0.586299 -1.15165
head 18.3421 0.0135159 -0.302285
rclavicle -1.07344e-014 -9.0447e-015
rhumerus 91.5457 -8.5563 -36.2587
rradius 27.6672
rwrist -24.1435
rhand 26.9157 -24.0473
rfingers 7.12502
rthumb 50.9139 -44.7766
lclavicle -1.07344e-014 -9.0447e-015
lhumerus -268.835 5.72308 -321.135
lradius 24.3116
lwrist -0.313063
lhand 16.1655 -7.4309
lfingers 7.12502
lthumb 40.9476 17.5021
rfemur -44.7748 -3.93698 21.6191
rtibia 59.0301
rfoot 1.88579 -0.874717
rtoes 4.90898
lfemur -43.3184 4.61265 -30.7088
ltibia 79.8002
lfoot -4.54562 -1.57204
ltoes -14.8451
1509
root 0.0262718 14.0961 5.81895 83.1284 4.7813 0.285166
lowerback -2.72592 0.326374 -3.15637
upperback -2.0067 0.51397 3.0471
thorax -0.592154 0.313092 4.93092
lowerneck -14.5953 -0.142388 -0.565941
upperneck 41.9858 0.535187 -1.16702
head 18.1514 0.00399429 -0.329889
rclavicle -3.97569e-016 3.77691e-015
rhumerus 90.996 -8.09734 -35.8699
rradius 27.938
rwrist -24.9946
rhand 26.0738 -24.4155
rfingers 7.12502
rthumb 50.1452 -45.5617
lclavicle -3.97569e-016 3.77691e-015
lhumerus -269.317 5.39172 -321.455
lradius 24.7009
lwrist 0.81168
lhand 15.3404 -7.08889
lfingers 7.12502
lthumb 40.1719 18.0851
rfemur -45.03 -4.15877 21.7137
rtibia 60.7938
rfoot 2.36341 -0.820591
rtoes 5.41144
lfemur -43.1339 5.08176 -30.8076
ltibia 81.6695
lfoot -3.88218 -1.43439
ltoes -13.0761
1510
root 0.0337497 14.1281 5.856 83.6681 4.60681 0.162249
lowerback -2.86673 0.388297 -3.39096
upperback -1.88377 0.604217 3.04953
thorax -0.399641 0.354083 5.07105
lowerneck -14.5197 -0.146355 -0.466851
upperneck 41.6593 0.485119 -1.16432
head 17.9353 0.000430223 -0.353298
rclavicle 8.74653e-015 3.97569e-014
rhumerus 90.4496 -7.77032 -35.2299
rradius 28.2476
rwrist -25.709
rhand 25.0205 -24.4825
rfingers 7.12502
rthumb 49.18 -46.1253
lclavicle 8.74653e-015 3.97569e-014
lhumerus -269.758 5.13809 -322.04
lradius 25.2539
lwrist 2.83938
lhand 14.3737 -6.03339
lfingers 7.12502
lthumb 39.2618 19.4112
rfemur -45.3102 -4.44808 21.8052
rtibia 62.6673
rfoot 2.93544 -0.8877
rtoes 6.2575
lfemur -42.9632 5.43831 -30.8523
ltibia 83.4468
lfoot -3.19179 -1.46174
ltoes -11.4142
1511
root 0.0417373 14.1606 5.89307 84.2625 4.44611 0.0800435
lowerback -3.03288 0.427954 -3.60171
upperback -1.76224 0.665572 3.04028
thorax -0.19118 0.379163 5.18566
lowerneck -14.471 -0.137402 -0.364284
upperneck 41.2579 0.440162 -1.13205
head 17.6857 0.00229622 -0.362296
rclavicle -9.54166e-015 -2.19657e-014
rhumerus 89.9294 -7.55698 -34.3765
rradius 28.5404
rwrist -26.2426
rhand 23.767 -24.1128
rfingers 7.12502
rthumb 48.0268 -46.3131
lclavicle -9.54166e-015 -2.19657e-014
lhumerus -270.149 4.95671 -322.793
lradius 25.9043
lwrist 5.27792
lhand 13.1914 -4.63809
lfingers 7.12502
lthumb 38.1466 21.1211
rfemur -45.6154 -4.80581 21.8976
rtibia 64.6253
rfoot 3.53721 -0.982448
rtoes 7.09671
lfemur -42.8164 5.69635 -30.8446
ltibia 85.1175
lfoot -2.46061 -1.69089
ltoes -9.86063
1512
root 0.0501739 14.1934 5.9291 84.9154 4.30307 0.0372243
lowerback -3.23063 0.445907 -3.77472
upperback -1.64562 0.698685 3.01817
thorax 0.0336742 0.388725 5.2654
lowerneck -14.4336 -0.11484 -0.270168
upperneck 40.7826 0.404104 -1.06613
head 17.4014 0.00991419 -0.352556
rclavicle 1.86858e-014 2.08724e-014
rhumerus 89.4517 -7.46501 -33.3151
rradius 28.7932
rwrist -26.7113
rhand 22.3097 -23.3912
rfingers 7.12502
rthumb 46.6803 -46.197
lclavicle 1.86858e-014 2.08724e-014
lhumerus -270.518 4.8478 -323.74
lradius 26.6054
lwrist 7.60298
lhand 11.5077 -3.22759
lfingers 7.12502
lthumb 36.5549 22.9506
rfemur -45.9421 -5.22518 21.9903
rtibia 66.6403
rfoot 4.09319 -1.03036
rtoes 7.61772
lfemur -42.7052 5.83166 -30.7896
ltibia 86.681
lfoot -1.70045 -2.04617
ltoes -8.24726
1513
root 0.0590186 14.226 5.9648 85.6357 4.18435 0.0196215
lowerback -3.47523 0.441883 -3.89365
upperback -1.53959 0.703095 2.98612
thorax 0.278121 0.382707 5.30387
lowerneck -14.3889 -0.0701074 -0.194881
upperneck 40.2349 0.396369 -0.974466
head 17.0806 0.0285275 -0.322902
rclavicle -3.97569e-016 -3.72721e-015
rhumerus 89.0448 -7.45042 -32.1681
rradius 28.977
rwrist -27.2288
rhand 20.6076 -22.4188
rfingers 7.12502
rthumb 45.1006 -45.8786
lclavicle -3.97569e-016 -3.72721e-015
lhumerus -270.849 4.8181 -324.737
lradius 27.2559
lwrist 9.50086
lhand 9.5959 -2.18621
lfingers 7.12502
lthumb 34.743 24.4295
rfemur -46.2844 -5.68402 22.0899
rtibia 68.674
rfoot 4.69183 -0.965201
rtoes 8.16244
lfemur -42.6464 5.88987 -30.6844
ltibia 88.1331
lfoot -0.91405 -2.44672
ltoes -6.62589
1514
root 0.0679966 14.2582 6.00025 86.4256 4.08487 0.0123068
lowerback -3.77838 0.420994 -3.96295
upperback -1.44723 0.685923 2.94577
thorax 0.544698 0.365007 5.30538
lowerneck -14.3225 -0.0028341 -0.143701
upperneck 39.6311 0.423188 -0.866206
head 16.7314 0.0591318 -0.276156
rclavicle -4.37326e-015 3.21037e-014
rhumerus 88.7196 -7.49629 -31.0114
rradius 29.0952
rwrist -27.844
rhand 18.6954 -21.385
rfingers 7.12502
rthumb 43.3179 -45.5177
lclavicle -4.37326e-015 3.21037e-014
lhumerus -271.153 4.86682 -325.754
lradius 27.793
lwrist 10.7394
lhand 7.47479 -1.73483
lfingers 7.12502
lthumb 32.7275 25.3225
rfemur -46.6375 -6.16051 22.1912
rtibia 70.693
rfoot 5.32637 -0.808649
rtoes 8.60861
lfemur -42.6507 5.88717 -30.5402
ltibia 89.4749
lfoot -0.112324 -2.78003
ltoes -4.70543
1515
root 0.0769384 14.2899 6.03587 87.2732 4.0034 0.00371623
lowerback -4.13175 0.387608 -3.98531
upperback -1.36869 0.652492 2.90043
thorax 0.827791 0.338742 5.27473
lowerneck -14.2222 0.0848451 -0.11695
upperneck 38.9913 0.486477 -0.75392
head 16.3633 0.101369 -0.218225
rclavicle 7.55382e-015 -1.26725e-014
rhumerus 88.4693 -7.58909 -29.8859
rradius 29.1612
rwrist -28.6
rhand 16.5659 -20.3144
rfingers 7.12502
rthumb 41.3235 -45.1271
lclavicle 7.55382e-015 -1.26725e-014
lhumerus -271.426 4.98901 -326.707
lradius 28.1618
lwrist 11.2201
lhand 5.29605 -1.96231
lfingers 7.12502
lthumb 30.6523 25.5048
rfemur -46.9795 -6.64094 22.2932
rtibia 72.6614
rfoot 6.04011 -0.620676
rtoes 8.80355
lfemur -42.7123 5.84264 -30.3617
ltibia 90.7023
lfoot 0.647898 -3.00849
ltoes -2.75521
1516
root 0.085871 14.3212 6.07158 88.1755 3.94233 -0.0107272
lowerback -4.5349 0.348916 -3.96747
upperback -1.30663 0.612185 2.85534
thorax 1.12298 0.309089 5.22144
lowerneck -14.0796 0.186358 -0.110588
upperneck 38.3405 0.584359 -0.660745
head 15.9885 0.152775 -0.160681
rclavicle -4.77083e-015 -1.07344e-014
rhumerus 88.2872 -7.70862 -28.8762
rradius 29.183
rwrist -29.4106
rhand 14.2803 -19.2341
rfingers 7.12502
rthumb 39.1738 -44.7041
lclavicle -4.77083e-015 -1.07344e-014
lhumerus -271.668 5.16803 -327.548
lradius 28.3422
lwrist 10.9106
lhand 2.97002 -2.81247
lfingers 7.12502
lthumb 28.4319 25.0476
rfemur -47.3054 -7.11676 22.3986
rtibia 74.5476
rfoot 6.95997 -0.407643
rtoes 9.23217
lfemur -42.833 5.7608 -30.1489
ltibia 91.8134
lfoot 1.32055 -3.08938
ltoes -0.959546
